# xmcd
#
# Track frame offsets: 
#        150
#        25712
#        46127
#        71217
#        96887
#        119225
#        140962
#        165465
#        185762
#        208980
#        231202
#
# Disc length: 3367 seconds
#
# Revision: 1
# Processed by: cddbd v1.5.2PL0 Copyright (c) Steve Scherf et al.
# Submitted via: ExactAudioCopy v0.95a5
#
DISCID=ab0d250b
DTITLE=Ricky Lawson - First Things 1st
DYEAR=1997
DGENRE=Jazz
TTITLE0=Real Love
TTITLE1=Plain Old Fashion Love
TTITLE2=Slow And Gentle
TTITLE3=I Will Be Here Waiting For You
TTITLE4=Sweet Love
TTITLE5=Blues Club
TTITLE6=Need Somebody
TTITLE7=Simple Man
TTITLE8=Sunlight
TTITLE9=So Special
TTITLE10=Love Will Bring Us Back Around
EXTD=YEAR: 1997
EXTT0=
EXTT1=
EXTT2=
EXTT3=
EXTT4=
EXTT5=
EXTT6=
EXTT7=
EXTT8=
EXTT9=
EXTT10=
PLAYORDER=
